# File generated by ImageToStl.com - Free Image and 3D model conversion tools

o obj1
v 8.92500019 8.94400024 0.00743414
v 9.0340004 8.84500027 0.00724086
v 10.13599968 5.9829998 0.005
v 8.82600021 9.05300045 0.00761262
v 8.73799992 9.17099953 0.00777453
v 8.59899998 9.43099976 0.00804161
v 8.66300011 9.29800034 0.00791659
v 6.40600014 11.8760004 0.012
v 8.55000019 9.56999969 0.00814306
v 8.51399994 9.7130003 0.0082239
v 8.49199963 9.85900021 0.00828233
v 8.48499966 10.00599957 0.00831642
v 8.49199963 10.15299988 0.00832764
v 9.84000015 8.51099968 0.00587305
v 9.69400024 8.53299999 0.00611488
v 9.55099964 8.56799984 0.00635382
v 9.41300011 8.61800003 0.00658691
v 9.15299988 8.75699997 0.00703295
v 9.27900028 8.68099976 0.00681546
v 13.3739996 7.85300016 0
v 11.14900017 9.05300045 0.00381876
v 11.19310856 9.11214542 0.00375584
v 11.05000019 8.94400024 0.00396365
v 10.94099998 8.84500027 0.0041264
v 10.82199955 8.75699997 0.00430719
v 10.6960001 8.68099976 0.00450125
v 8.82600021 10.95899963 18.67948723
v 6.60099983 12.15999985 18.68300056
v 8.73799992 10.8409996 18.67962646
v 14.33100033 17.51399994 14.64700031
v 16.34499931 14.02900028 16.18000031
v 14.99199963 18.66900063 11.15299988
v 13.56900024 11.8760004 18.67200089
v 9.15299988 11.25500011 18.67897224
v 9.0340004 11.16800022 18.67915916
v 8.92500019 11.06900024 18.67933083
v 10.31000042 17.51399994 16.19000053
v 11.7329998 20 8.67199993
v 7.48000002 18.66900063 14.03600025
v 8.24199963 20 10.01200008
v 17.76799965 16.51600075 8.6619997
v 10.28100014 8.53299999 0.00515621
v 10.42399979 8.56799984 0.00492806
v 10.56299973 8.61800003 0.00470876
v 8.55000019 10.44200039 0.00827746
v 8.59899998 10.58100033 0.00821886
v 8.609869 10.6035881 0.00820459
v 4.9829998 18.66900063 7.53000021
v 2.20700002 16.51600075 10.02200031
v 3.75099993 16.51600075 14.04199982
v 5.64400005 17.51399994 4.03599977
v 16.34499931 5.9829998 16.18000031
v 14.33100033 2.49900007 14.64700031
v 14.99199963 1.34300005 11.15299988
v 9.66499996 17.51399994 2.49300003
v 12.49499989 18.66900063 4.64699984
v 9.98799992 8.50399971 0.00563026
v 10.13500023 8.51099968 0.00539126
v 16.22500038 16.51600075 4.64099979
v 8.51399994 10.29899979 0.00831421
v 10.13599968 14.02900028 0.005
v 16.22500038 3.49699998 4.64099979
v 10.31000042 2.49900007 16.19000053
v 7.48000002 1.34300005 14.03600025
v 8.24199963 0.012 10.01200008
v 11.7329998 0.012 8.67199993
v 16.63299942 13.49100018 2.48099995
v 13.56900024 8.13700008 18.67200089
v 9.83899975 5.9829998 18.6779995
v 18.64800072 10.00599957 4.01499987
v 19.98800087 10.00599957 7.50500011
v 19.5170002 13.49100018 9.99300003
v 1.32799995 10.00599957 14.66800022
v 3.34200001 13.49100018 16.20199966
v 0.458 13.49100018 8.68999958
v 17.76799965 3.49699998 8.6619997
v 19.5170002 6.52199984 9.99300003
v 16.63299942 6.52199984 2.48099995
v 18.75499916 7.85300016 14.01799965
v 18.75499916 12.15999985 14.01799965
v 0.458 6.52199984 8.68999958
v 3.34200001 6.52199984 16.20199966
v 3.75099993 3.49699998 14.04199982
v -0.012 10.00599957 11.17800045
v 2.20700002 3.49699998 10.02200031
v 6.60099983 7.85300016 18.68300056
v 9.83899975 14.02900028 18.6779995
v 6.40600014 8.13700008 0.012
v 8.73799992 10.8409996 0.00798393
v 8.66300011 10.71399975 0.00811309
v 9.84000015 11.5010004 18.67788696
v 9.69400024 11.47999954 18.67811775
v 11.23700047 9.17099953 0.00368025
v 9.41300011 11.39400005 18.67856026
v 9.27900028 11.33100033 18.67877197
v 9.55099964 11.44400024 18.67834282
v 13.3739996 12.15999985 0
v 11.48999977 10.00599957 0.00324455
v 10.56299973 11.39400005 18.67674446
v 10.42399979 11.44400024 18.67696571
v 11.31299973 9.29800034 0.00354937
v 11.3760004 9.43099976 0.00344087
v 9.0340004 11.16800022 0.00747417
v 8.92500019 11.06900024 0.00766188
v 8.82600021 10.95899963 0.00783238
v 9.27900028 11.33100033 0.00705224
v 9.15299988 11.25500011 0.00726923
v 9.41300011 11.39400005 0.00682147
v 9.55099964 11.44400024 0.00658381
v 9.69400024 11.47999954 0.00633754
v 9.84000015 11.5010004 0.00608611
v 9.98799992 11.50899982 0.00583123
v 10.13500023 11.5010004 0.00557807
v 10.28100014 11.47999954 0.00532664
v 10.42399979 11.44400024 0.00508037
v 10.56299973 11.39400005 0.00484099
v 10.94099998 11.16800022 0.00419001
v 11.05000019 11.06900024 0.0040023
v 11.31299973 10.71399975 0.00354937
v 11.23700047 10.8409996 0.00368025
v 9.66499996 2.49900007 2.49300003
v 12.49499989 1.34300005 4.64699984
v 11.3760004 10.58100033 0.00344087
v 11.42500019 10.44200039 0.00335649
v 11.46100044 10.29899979 0.00329449
v 11.14900017 10.95899963 0.0038318
v 10.82199955 11.25500011 0.00439495
v 10.6960001 11.33100033 0.00461194
v 11.42500019 9.56999969 0.00335649
v 11.46100044 9.7130003 0.00329449
v 11.4829998 9.85900021 0.0032566
v 11.4829998 10.15299988 0.0032566
v 11.46100044 10.29899979 18.6753273
v 8.66300011 10.71399975 18.67974472
v 9.0340004 8.84500027 18.67915916
v 9.15299988 8.75699997 18.67897224
v 8.92500019 8.94400024 18.67933083
v 8.82600021 9.05300045 18.67948723
v 8.73799992 9.17099953 18.67962646
v 8.66300011 9.29800034 18.67974472
v 8.59899998 9.43099976 18.67984581
v 8.55000019 9.56999969 18.67992401
v 8.51399994 9.7130003 18.67997932
v 8.49199963 9.85900021 18.68001556
v 8.48499966 10.00599957 18.6800251
v 10.6960001 11.33100033 18.67653465
v 10.94099998 11.16800022 18.67614937
v 10.82199955 11.25500011 18.67633629
v 11.05000019 11.06900024 18.6759758
v 11.23700047 10.8409996 18.67568207
v 11.14900017 10.95899963 18.6758194
v 11.3760004 10.58100033 18.67546272
v 11.31299973 10.71399975 18.6755619
v 11.42500019 10.44200039 18.67538452
v 9.98799992 11.50899982 18.67765236
v 10.28100014 11.47999954 18.67719078
v 10.13500023 11.5010004 18.67742157
v 11.4829998 10.15299988 18.67529297
v 11.4829998 9.85900021 18.67529297
v 11.48999977 10.00599957 18.67528152
v 11.46100044 9.7130003 18.6753273
v 11.42500019 9.56999969 18.67538452
v 11.3760004 9.43099976 18.67546272
v 9.55099964 8.56799984 18.67834282
v 9.69400024 8.53299999 18.67811775
v 9.41300011 8.61800003 18.67856026
v 9.27900028 8.68099976 18.67877197
v 9.84000015 8.51099968 18.67788696
v 9.98799992 8.50399971 18.67765236
v 10.13500023 8.51099968 18.67742157
v 10.42399979 8.56799984 18.67696571
v 10.56299973 8.61800003 18.67674446
v 11.05000019 8.94400024 18.6759758
v 11.14900017 9.05300045 18.6758194
v 10.94099998 8.84500027 18.67614937
v 10.82199955 8.75699997 18.67633629
v 10.6960001 8.68099976 18.67653465
v 11.23700047 9.17099953 18.67568207
v 8.49199963 10.15299988 18.68001556
v 8.51399994 10.29899979 18.67997932
v 8.55000019 10.44200039 18.67992401
v 10.28100014 8.53299999 18.67719078
v 11.31299973 9.29800034 18.6755619
v 8.59899998 10.58100033 18.67984581
v 4.9829998 1.34300005 7.53000021
v 5.64400005 2.49900007 4.03599977
v 3.63000011 5.9829998 2.50300002
v 1.22000003 7.85300016 4.66599989
v 3.63000011 14.02900028 2.50300002
v 1.22000003 12.15999985 4.66599989
vn -0.00163 0.00015 -1
vn 0.00158 0 1
vn 0.7461 0.57719 0.33195
vn 0.30516 0.52566 0.79408
vn 0.12774 0.9342 0.33309
vn 0.128 0.93419 0.33303
vn 0.1279 0.93414 0.3332
vn 0.12782 0.93419 0.3331
vn 0.74586 0.57737 0.33217
vn -0.49064 0.85074 0.18845
vn -0.49083 0.85065 0.18838
vn -0.49088 0.85061 0.1884
vn -0.12792 0.9342 -0.33302
vn 0.74591 -0.57733 0.33212
vn -0.12781 0.9342 -0.33306
vn -0.12787 0.93417 -0.33312
vn -0.12777 0.93421 -0.33306
vn 0.33207 0.57739 -0.74589
vn 0.33207 0.57738 -0.74589
vn 0.33223 -0.57727 -0.74591
vn 0.49074 0.85071 -0.18834
vn 0.12796 -0.93413 0.33321
vn 0.12791 -0.93413 0.33323
vn 0.87223 0.35664 -0.3347
vn 0.12782 -0.93414 0.33324
vn 0.49082 0.85065 -0.18838
vn 0.12787 -0.93414 0.33322
vn 0.49078 0.85069 -0.18833
vn 0.30496 -0.52571 0.79412
vn 0.30488 -0.52573 0.79414
vn 0.87209 0.35685 -0.33484
vn 0.87208 0.35689 -0.33481
vn 0.87208 0.3569 -0.33481
vn -0.87217 0.35664 0.33484
vn 0.74588 -0.57738 0.3321
vn -0.87209 0.35674 0.33495
vn -0.87206 0.35697 0.3348
vn 0.87205 -0.35698 -0.3348
vn 0.87206 -0.35694 -0.33483
vn 0.66777 0 0.74437
vn 0.66796 -0.00013 0.7442
vn 0.74591 -0.57732 0.33213
vn 0.74595 -0.5773 0.33209
vn 0.7458 0.57746 0.33215
vn 0.74584 0.57739 0.33218
vn 0.98255 -0 0.18601
vn 0.60573 0 -0.79567
vn 0.98255 0 0.18601
vn 0.98255 0 0.18601
vn -0.87214 -0.35673 0.33483
vn -0.87206 -0.35697 0.3348
vn 0.66784 0.00015 0.74431
vn 0.66802 0 0.74415
vn -0.87212 -0.35678 0.33485
vn -0.33211 -0.57749 0.7458
vn -0.87209 -0.35674 0.33495
vn -0.33214 -0.57709 0.74609
vn 0.00158 6E-05 1
vn -0.33213 -0.57745 0.74581
vn 0.00158 -6E-05 1
vn -0.33218 -0.57719 0.746
vn -0.60576 0.00015 0.79564
vn -0.49098 -0.85051 0.18858
vn -0.00188 0 -1
vn 0.86106 -0.5085 0
vn -0.00172 0 -1
vn -0.00171 -0.00029 -1
vn -0.12802 -0.93415 -0.33314
vn -0.12789 -0.93415 -0.33318
vn 0.60573 0 -0.79567
vn 0.49082 -0.85065 -0.18838
vn -0.96974 -0.24413 0
vn 0.3321 0.57735 -0.74591
vn 0.33203 0.5774 -0.7459
vn 0.87215 -0.35672 -0.33483
vn 0.8721 -0.35699 -0.33466
vn 0.9011 -0.43361 0
vn 0.33182 -0.57752 -0.7459
vn 0.33203 -0.5774 -0.7459
vn 0.33219 -0.57732 -0.74589
vn 0.49093 -0.85058 -0.18842
vn 0.4909 -0.8506 -0.18838
vn -0.33848 -0.94097 0
vn 0.99887 0.04757 0
vn 0.51649 0.85629 0
vn 0.59458 0.80404 0
vn 0.86106 0.5085 0
vn 0.74025 0.67233 0
vn 0.96974 0.24413 0
vn 0.80163 0.59782 0
vn -0.99887 0.04757 0
vn -0.98884 0.149 0
vn 0.99887 -0.04757 0
vn 0.98884 0.149 0
vn 0.149 0.98884 0
vn 0.42547 0.90497 0
vn -0.04757 0.99887 0
vn -0.33848 0.94097 0
vn -0.33207 0.57738 0.74589
vn -0.33208 0.57732 0.74594
vn -0.33214 0.57735 0.74589
vn -0.33206 0.57746 0.74584
vn 0.30472 -0.52589 0.7941
vn -0.6058 0 0.79562
vn -0.60576 -0.00015 0.79564
vn 0.30476 0.52577 0.79416
vn -0.99887 -0.04757 0
vn 0.30475 0.52577 0.79416
vn -0.67233 0.74025 0
vn -0.59458 0.80404 0
vn -0.51649 0.85629 0
vn -0.05434 -0.99852 0
vn -0.14237 -0.98981 0
vn -0.42809 -0.90374 0
vn -0.80163 -0.59782 0
vn -0.90374 -0.42809 0
vn -0.94312 -0.33247 0
vn 0.80163 -0.59782 0
vn 0.67233 0.74025 0
vn 0.9011 0.43361 0
vn 0.94312 0.33247 0
vn 0.04724 0.99888 0
vn 0.23774 0.97133 0
vn 0.74329 -0.66896 0
vn 0.59019 -0.80727 0
vn 0.51649 -0.85629 0
vn 0.42547 -0.90497 0
vn 0.34065 -0.94019 0
vn 0.24413 -0.96974 0
vn 0.14237 -0.98981 0
vn -0.42809 0.90374 0
vn 0.34065 0.94019 0
vn 0.05398 -0.99854 0
vn -0.149 0.98884 0
vn -0.24413 -0.96974 0
vn -0.96974 0.24413 0
vn -0.67233 -0.74025 0
vn -0.80163 0.59782 0
vn -0.74329 -0.66896 0
vn -0.74025 0.67233 0
vn -0.85809 -0.5135 0
vn -0.94312 0.33247 0
vn -0.85809 0.5135 0
vn -0.23774 0.97133 0
vn 0.98884 -0.149 0
vn 0.96974 -0.24413 0
vn 0.94312 -0.33247 0
vn 0.67233 -0.74025 0
vn -0.12773 -0.93415 -0.33323
vn -0.746 -0.57727 -0.33204
vn -0.74591 -0.57733 -0.33212
vn -0.90374 0.42809 0
vn -0.12785 -0.93415 -0.33318
vn -0.74576 -0.57747 -0.33223
vn -0.74597 -0.5773 -0.33205
vn -0.66788 -4E-05 -0.74426
vn -0.66794 0 -0.74421
vn -0.6679 0 -0.74425
vn -0.305 0.52561 -0.79418
vn -0.6679 8E-05 -0.74425
vn -0.7458 0.57746 -0.33215
vn -0.74588 0.57732 -0.3322
vn -0.74591 0.57733 -0.33213
vn -0.7461 0.57719 -0.33195
vn -0.30512 -0.52578 -0.79402
vn -0.30477 -0.52567 -0.79422
vn -0.3048 -0.52566 -0.79422
vn -0.30477 0.52567 -0.79422
vn -0.30494 0.52572 -0.79412
vn -0.98254 0 -0.18606
vn -0.49088 -0.85061 0.1884
vn -0.49089 -0.85061 0.1884
vn -0.87215 0.35669 0.33486
vn -0.98258 0.00016 -0.18584
vn -0.98255 -0.00026 -0.18597
vn -0.51649 -0.85629 0
vn -0.59019 -0.80727 0
vn -0.98884 -0.149 0
f 1//1 2//1 3//1
f 4//1 1//1 3//1
f 5//1 4//1 3//1
f 6//1 7//1 8//1
f 9//1 8//1 10//1
f 11//1 10//1 8//1
f 9//1 6//1 8//1
f 12//1 8//1 13//1
f 14//1 3//1 15//1
f 16//1 15//1 3//1
f 17//1 16//1 3//1
f 3//1 18//1 19//1
f 20//1 21//1 22//1
f 23//1 21//1 20//1
f 24//1 23//1 20//1
f 25//1 24//1 20//1
f 26//1 25//1 20//1
f 20//1 3//1 26//1
f 27//2 28//2 29//2
f 30//3 31//3 32//3
f 30//4 33//4 31//4
f 34//2 28//2 35//2
f 36//2 28//2 27//2
f 37//5 38//5 39//5
f 38//6 30//6 32//6
f 40//7 39//7 38//7
f 38//8 37//8 30//8
f 32//9 31//9 41//9
f 42//1 43//1 3//1
f 43//1 44//1 3//1
f 45//1 8//1 46//1
f 47//1 46//1 8//1
f 48//10 49//10 50//10
f 50//11 39//11 48//11
f 48//12 39//12 40//12
f 48//13 40//13 51//13
f 52//14 53//14 54//14
f 44//1 26//1 3//1
f 40//15 55//15 51//15
f 40//16 38//16 56//16
f 7//1 5//1 8//1
f 3//1 8//1 5//1
f 19//1 17//1 3//1
f 14//1 57//1 3//1
f 57//1 58//1 3//1
f 58//1 42//1 3//1
f 40//17 56//17 55//17
f 56//18 59//18 55//18
f 60//1 8//1 45//1
f 13//1 8//1 60//1
f 11//1 8//1 12//1
f 59//19 61//19 55//19
f 20//20 62//20 3//20
f 56//21 32//21 59//21
f 63//22 64//22 65//22
f 63//23 65//23 66//23
f 41//24 67//24 59//24
f 66//25 54//25 53//25
f 38//26 32//26 56//26
f 66//27 53//27 63//27
f 59//28 32//28 41//28
f 52//29 68//29 53//29
f 68//30 69//30 53//30
f 70//31 67//31 71//31
f 67//32 72//32 71//32
f 41//33 72//33 67//33
f 73//34 74//34 75//34
f 52//35 76//35 77//35
f 50//36 49//36 75//36
f 74//37 50//37 75//37
f 78//38 71//38 77//38
f 78//39 70//39 71//39
f 52//40 79//40 80//40
f 52//41 80//41 68//41
f 77//42 79//42 52//42
f 52//43 54//43 76//43
f 31//44 80//44 72//44
f 41//45 31//45 72//45
f 71//46 72//46 80//46
f 78//47 67//47 70//47
f 71//48 80//48 77//48
f 77//49 80//49 79//49
f 81//50 82//50 73//50
f 83//51 82//51 81//51
f 68//52 80//52 31//52
f 68//53 31//53 33//53
f 73//54 84//54 81//54
f 69//55 83//55 63//55
f 85//56 83//56 81//56
f 83//57 64//57 63//57
f 68//58 86//58 69//58
f 82//59 83//59 69//59
f 33//60 87//60 28//60
f 86//61 82//61 69//61
f 73//62 82//62 86//62
f 83//63 85//63 64//63
f 3//64 88//64 8//64
f 89//65 29//65 90//65
f 91//2 28//2 92//2
f 36//2 35//2 28//2
f 93//66 20//66 22//66
f 94//2 28//2 95//2
f 34//2 95//2 28//2
f 96//2 28//2 94//2
f 92//2 28//2 96//2
f 97//66 20//66 98//66
f 99//2 33//2 100//2
f 101//66 102//66 20//66
f 20//66 93//66 101//66
f 47//66 8//66 90//66
f 103//66 104//66 8//66
f 104//66 105//66 8//66
f 106//66 107//66 8//66
f 107//66 103//66 8//66
f 108//66 106//66 8//66
f 109//66 108//66 8//66
f 109//66 8//66 110//66
f 111//66 110//66 8//66
f 112//66 97//66 113//66
f 113//66 97//66 114//66
f 115//66 114//66 97//66
f 116//66 115//66 97//66
f 8//67 61//67 97//67
f 117//66 97//66 118//66
f 119//66 120//66 97//66
f 121//68 122//68 66//68
f 123//66 97//66 124//66
f 125//66 124//66 97//66
f 120//66 126//66 97//66
f 126//66 118//66 97//66
f 97//66 117//66 127//66
f 97//66 127//66 128//66
f 116//66 97//66 128//66
f 111//66 8//66 112//66
f 97//66 112//66 8//66
f 121//69 66//69 65//69
f 129//66 20//66 102//66
f 129//66 130//66 20//66
f 130//66 131//66 20//66
f 131//66 98//66 20//66
f 98//66 132//66 97//66
f 132//66 125//66 97//66
f 123//66 119//66 97//66
f 89//66 8//66 105//66
f 90//66 8//66 89//66
f 97//70 67//70 20//70
f 122//71 54//71 66//71
f 125//72 133//72 124//72
f 61//73 59//73 97//73
f 67//74 97//74 59//74
f 62//75 78//75 77//75
f 77//76 76//76 62//76
f 90//77 134//77 47//77
f 121//78 3//78 122//78
f 20//79 78//79 62//79
f 3//80 62//80 122//80
f 78//70 20//70 67//70
f 135//2 86//2 136//2
f 137//2 86//2 135//2
f 138//2 86//2 137//2
f 76//81 54//81 122//81
f 139//2 86//2 138//2
f 140//2 86//2 139//2
f 141//2 86//2 140//2
f 62//82 76//82 122//82
f 116//83 99//83 115//83
f 142//2 86//2 141//2
f 143//2 86//2 142//2
f 144//2 86//2 143//2
f 145//2 86//2 144//2
f 2//1 18//1 3//1
f 146//2 33//2 99//2
f 12//84 145//84 144//84
f 147//2 33//2 148//2
f 148//2 33//2 146//2
f 149//2 33//2 147//2
f 150//2 33//2 151//2
f 152//2 33//2 153//2
f 151//2 33//2 149//2
f 133//2 33//2 154//2
f 155//2 28//2 91//2
f 156//2 33//2 157//2
f 28//2 155//2 33//2
f 156//2 100//2 33//2
f 157//2 33//2 155//2
f 150//2 153//2 33//2
f 152//2 154//2 33//2
f 133//2 158//2 33//2
f 159//2 68//2 160//2
f 161//2 68//2 159//2
f 162//2 68//2 161//2
f 163//2 68//2 162//2
f 33//2 160//2 68//2
f 164//2 86//2 165//2
f 166//2 86//2 164//2
f 167//2 86//2 166//2
f 136//2 86//2 167//2
f 18//85 136//85 167//85
f 18//86 2//86 136//86
f 5//87 7//87 139//87
f 138//88 137//88 4//88
f 9//89 10//89 142//89
f 138//90 4//90 5//90
f 98//91 131//91 160//91
f 131//92 130//92 159//92
f 145//93 12//93 13//93
f 10//94 11//94 143//94
f 144//84 11//84 12//84
f 168//95 14//95 15//95
f 17//96 19//96 166//96
f 57//97 169//97 170//97
f 171//98 172//98 43//98
f 169//2 68//2 170//2
f 173//2 68//2 174//2
f 175//2 68//2 173//2
f 168//2 86//2 169//2
f 168//2 165//2 86//2
f 68//2 169//2 86//2
f 176//2 68//2 175//2
f 177//2 68//2 176//2
f 178//2 174//2 68//2
f 172//2 68//2 177//2
f 179//2 28//2 145//2
f 180//2 28//2 179//2
f 181//2 28//2 180//2
f 86//2 145//2 28//2
f 182//2 68//2 171//2
f 171//2 68//2 172//2
f 170//2 68//2 182//2
f 37//99 39//99 87//99
f 160//2 33//2 158//2
f 28//100 87//100 74//100
f 50//101 87//101 39//101
f 68//2 163//2 183//2
f 50//102 74//102 87//102
f 178//2 68//2 183//2
f 69//103 63//103 53//103
f 73//104 86//104 28//104
f 184//2 28//2 181//2
f 28//105 74//105 73//105
f 134//2 28//2 184//2
f 29//2 28//2 134//2
f 33//106 37//106 87//106
f 98//107 160//107 132//107
f 159//91 160//91 131//91
f 33//108 30//108 37//108
f 23//109 24//109 173//109
f 25//110 176//110 175//110
f 176//111 25//111 26//111
f 157//112 112//112 113//112
f 114//113 156//113 113//113
f 128//114 146//114 116//114
f 151//115 126//115 150//115
f 152//116 119//116 123//116
f 152//117 123//117 154//117
f 46//77 47//77 184//77
f 29//118 89//118 27//118
f 1//119 137//119 135//119
f 6//120 141//120 140//120
f 6//121 9//121 141//121
f 168//122 169//122 14//122
f 164//123 165//123 16//123
f 134//65 90//65 29//65
f 104//124 36//124 105//124
f 135//86 136//86 2//86
f 35//125 103//125 34//125
f 135//119 2//119 1//119
f 5//90 139//90 138//90
f 140//87 139//87 7//87
f 140//120 7//120 6//120
f 107//126 95//126 34//126
f 142//121 141//121 9//121
f 143//89 142//89 10//89
f 95//127 106//127 94//127
f 144//94 143//94 11//94
f 109//128 96//128 108//128
f 92//129 109//129 110//129
f 57//122 14//122 169//122
f 111//130 91//130 110//130
f 92//130 110//130 91//130
f 172//131 177//131 44//131
f 164//132 16//132 17//132
f 166//132 164//132 17//132
f 112//133 155//133 111//133
f 167//96 166//96 19//96
f 19//85 18//85 167//85
f 170//134 182//134 58//134
f 170//97 58//97 57//97
f 157//113 113//113 156//113
f 115//135 100//135 114//135
f 99//114 116//114 146//114
f 162//136 161//136 129//136
f 149//137 117//137 118//137
f 21//138 174//138 22//138
f 126//139 151//139 118//139
f 173//140 174//140 23//140
f 175//109 173//109 24//109
f 24//110 25//110 175//110
f 120//115 150//115 126//115
f 119//141 153//141 120//141
f 124//117 154//117 123//117
f 161//92 159//92 130//92
f 163//142 162//142 102//142
f 178//143 183//143 93//143
f 182//144 171//144 42//144
f 180//145 13//145 60//145
f 45//146 181//146 60//146
f 42//134 58//134 182//134
f 46//147 184//147 45//147
f 27//118 89//118 105//118
f 158//107 132//107 160//107
f 93//138 22//138 178//138
f 35//148 104//148 103//148
f 107//125 34//125 103//125
f 185//149 186//149 65//149
f 185//150 85//150 187//150
f 187//151 186//151 185//151
f 129//142 102//142 162//142
f 163//152 101//152 183//152
f 65//153 186//153 121//153
f 81//154 188//154 85//154
f 101//143 93//143 183//143
f 85//155 188//155 187//155
f 8//156 188//156 189//156
f 190//157 189//157 188//157
f 88//158 188//158 8//158
f 163//152 102//152 101//152
f 94//128 108//128 96//128
f 134//77 184//77 47//77
f 92//129 96//129 109//129
f 8//159 189//159 51//159
f 88//160 187//160 188//160
f 75//161 49//161 189//161
f 189//162 190//162 75//162
f 189//163 49//163 48//163
f 106//126 95//126 107//126
f 189//164 48//164 51//164
f 108//127 94//127 106//127
f 88//165 3//165 121//165
f 186//166 88//166 121//166
f 186//167 187//167 88//167
f 8//168 51//168 55//168
f 8//169 55//169 61//169
f 190//170 188//170 81//170
f 65//171 64//171 185//171
f 64//172 85//172 185//172
f 75//173 84//173 73//173
f 190//174 81//174 84//174
f 75//175 190//175 84//175
f 156//135 114//135 100//135
f 115//83 99//83 100//83
f 127//176 148//176 128//176
f 146//176 128//176 148//176
f 117//177 147//177 127//177
f 148//177 127//177 147//177
f 147//137 117//137 149//137
f 118//139 151//139 149//139
f 150//141 120//141 153//141
f 119//116 152//116 153//116
f 1//88 4//88 137//88
f 13//93 179//93 145//93
f 13//145 180//145 179//145
f 168//95 15//95 165//95
f 15//123 16//123 165//123
f 178//138 22//138 174//138
f 21//140 23//140 174//140
f 176//111 26//111 177//111
f 26//131 44//131 177//131
f 44//98 43//98 172//98
f 43//144 42//144 171//144
f 132//178 158//178 125//178
f 161//136 130//136 129//136
f 180//146 60//146 181//146
f 181//147 45//147 184//147
f 27//124 105//124 36//124
f 104//148 35//148 36//148
f 91//133 111//133 155//133
f 155//112 112//112 157//112
f 154//72 124//72 133//72
f 133//178 125//178 158//178
# Vertices: 190, normals: 178, texture coordinates: 0, faces: 380

